<?xml version="1.0" encoding="UTF-8"?>
<svg id="Capa_1" xmlns="http://www.w3.org/2000/svg" version="1.1" viewBox="0 0 1021.05 1021.05">
  <!-- Generator: Adobe Illustrator 29.5.1, SVG Export Plug-In . SVG Version: 2.1.0 Build 141)  -->
  <defs>
    <style>
      .st0 {
        fill: none;
      }

      .st1 {
        fill: #5940ed;
      }

      .st2 {
        fill: #fff;
      }
    </style>
  </defs>
  <path class="st0" d="M1021.05,42.82v938.35H0V42.82h1021.05ZM115.31,104.02v821.52l400.88.09c249.65-12.2,430.47-232.81,387.1-480.73-3.52-20.1-10.09-39.13-14.3-58.99l-5.59,2.76-108.75,108.53c-1.09,26.72-3.42,53.33-9.67,79.37-.72,2.99-1.31,10.49-4.31,11.46v-117.76l147.72-145.43c34.39,10.8,67.33-17.77,52.9-52.75-11.81-28.62-51.87-31.52-69.38-6.62-11.19,15.91-3.32,35-6.45,39.78-5.21,7.97-20.04,18.01-27.2,24.96-42.99,41.69-85.35,84.57-126.35,128.08l-2.32,177.58c-32.01,87.28-120.61,142.08-211.66,148.72l-248.27.02V244.96l250.22-.08c97.59,8.66,186.68,71.63,224.95,161.41l104.89-105.15c1.14-4.47-26.42-39.87-31.47-45.93-77.31-92.85-191.97-146.87-313.26-151.26l-389.71.08h.01ZM686.28,448.95h-89.27v294.86c35.75-13.29,65.5-38.44,89.27-67.69v-227.17ZM561.67,539.82h-89.27v224.39c29.78-1.44,60.06-1.8,89.02-9.52l.25-214.87ZM437.06,597.3h-87.41v166.9h87.41v-166.9h0Z"/>
  <circle class="st2" cx="510.52" cy="510.52" r="510.52"/>
  <path class="st1" d="M683.49,460.38v187.72c-19.58,24.17-44.1,44.95-73.55,55.93v-243.65h73.55Z"/>
  <path class="st1" d="M580.82,535.47l-.21,177.55c-23.86,6.37-48.81,6.68-73.35,7.87v-185.42h73.56Z"/>
  <rect class="st1" x="406.13" y="582.97" width="72.02" height="137.91"/>
  <path class="st1" d="M213.05,175.36l321.1-.06c99.93,3.63,194.4,48.27,258.11,124.99,4.16,5.01,26.87,34.26,25.93,37.96l-86.42,86.89c-31.54-74.19-104.94-126.22-185.35-133.37l-206.17.06v445.92l204.56-.02c75.02-5.48,148.02-50.76,174.4-122.89l1.91-146.74c33.78-35.95,68.68-71.38,104.1-105.84,5.9-5.74,18.12-14.03,22.41-20.62,2.57-3.95-3.91-19.73,5.31-32.87,14.42-20.57,47.43-18.18,57.16,5.47,11.9,28.91-15.25,52.51-43.59,43.59l-121.71,120.17v97.31c2.47-.8,2.96-7,3.56-9.47,5.14-21.52,7.07-43.5,7.97-65.59l89.61-89.68,4.6-2.28c3.47,16.41,8.89,32.14,11.78,48.75,35.74,204.87-113.25,387.16-318.95,397.25l-330.3-.07V175.36h-.02Z"/>
</svg>